<svg width="21" height="22" viewBox="0 0 21 22" fill="none" xmlns="http://www.w3.org/2000/svg">
<path d="M15.071 7.85855C14.7566 7.55569 14.2502 7.55955 13.9402 7.86877L9.00363 12.7872L6.48462 10.4244C6.16558 10.1254 5.65999 10.1362 5.35405 10.4492C5.04836 10.762 5.059 11.2578 5.37777 11.5569L8.46623 14.4537C8.62809 14.6056 8.83866 14.6777 9.047 14.6704C9.24467 14.6635 9.43985 14.5851 9.58963 14.4364L15.0798 8.96644C15.3896 8.65773 15.3859 8.16165 15.071 7.85855Z" fill="currentColor"/>
<path d="M9.91459 0.946744C4.44763 1.13765 0.155314 5.74059 0.346225 11.2076C0.537136 16.6745 5.14008 20.9668 10.607 20.7759C16.074 20.585 20.3663 15.9821 20.1754 10.5151C19.9845 5.04814 15.3816 0.755833 9.91459 0.946744ZM10.5509 19.1682C5.97063 19.3281 2.11393 15.732 1.95398 11.1514C1.79403 6.57115 5.39043 2.71444 9.97074 2.5545C14.5513 2.39454 18.4077 5.99095 18.5677 10.5713C18.7276 15.1518 15.1314 19.0082 10.5509 19.1682Z" fill="currentColor"/>
</svg>
