<svg width="3" height="806" viewBox="0 0 3 806" fill="none" xmlns="http://www.w3.org/2000/svg">
<path d="M1.5 804.499L2.88477 805.073C2.73271 805.44 2.44015 805.733 2.07324 805.885L1.5 804.502M1.5 804.499V804.502M1.5 804.499L1.49805 804.498L1.5 804.502M1.5 804.499V804.502M1.5 1.49707L0.925781 0.114258C0.559269 0.266302 0.266302 0.559269 0.114258 0.925781L1.49805 1.5L1.5 1.49707ZM1.5 1.49707L1.50098 1.5L2.88574 0.925781H2.88477C2.73256 0.559153 2.44003 0.266156 2.07324 0.114258L1.5 1.49707ZM3 789.443L3 799.48H0.5V799.481H0L0 789.443H3ZM3 769.368L3 779.406H0L0 769.369L2.5 769.368H3ZM3 749.293L3 759.331H0L0 749.294L2.5 749.293H3ZM3 729.219L3 739.256H0L0 729.219H3ZM3 709.144L3 719.181H0.5V719.182H0L0 709.144H3ZM3 689.068L3 699.106H0L0 689.068H3ZM3 668.993L3 679.031H0L0 668.994L2.5 668.993H3ZM3 648.919L3 658.956H0L0 648.919H3ZM3 628.844L3 638.881H0L0 628.844H3ZM3 608.769L3 618.807H0L0 608.769H3ZM3 588.693L3 598.731H0L0 588.693H3ZM3 568.619L3 578.656H0L0 568.619H3ZM3 548.544L3 558.581H0L0 548.544H3ZM3 528.469L3 538.507H2.5V538.506H0L0 528.469H3ZM3 508.394L3 518.432H0L0 508.394H3ZM0.5 488.318V488.319H3L3 498.356H0L0 488.318H0.5ZM3 468.244L3 478.281H0L0 468.244H3ZM3 448.169L3 458.206H0L0 448.169H3ZM3 428.094L3 438.132H2.5V438.131H0L0 428.094H3ZM3 408.019L3 418.057H2.5V418.056H0L0 408.019H3ZM0.5 387.943V387.944H3L3 397.981H0L0 387.943H0.5ZM0.5 367.868V367.869H3L3 377.906H0L0 367.868H0.5ZM3 347.794L3 357.831H0L0 347.794H3ZM3 327.719L3 337.756H0L0 327.719H3ZM3 307.644L3 317.682H2.5V317.681H0L0 307.644H3ZM3 287.568L3 297.606H0L0 287.568H3ZM0.5 267.493V267.494H3L3 277.531H0L0 267.493H0.5ZM3 247.419L3 257.456H0L0 247.419H3ZM3 227.344L3 237.381H0L0 227.344H3ZM3 207.269L3 217.307H0L0 207.269H3ZM3 187.193L3 197.231H0L0 187.193H3ZM3 167.119L3 177.156H0L0 167.119H3ZM3 147.044L3 157.081H0L0 147.044H3ZM3 126.969L3 137.006H0.5V137.007H0L0 126.969H3ZM3 106.894L3 116.932H0L0 106.894H3ZM3 86.8184L3 96.8564H0L0 86.8193L2.5 86.8184H3ZM3 66.7441L3 76.7812H0L0 66.7441H3ZM3 46.6689L3 56.7061H0.5V56.707H0L0 46.6689H3ZM3 26.5938L3 36.6309H0.5V36.6318H0L0 26.5938H3ZM3 6.51855L3 16.5566H0L0 6.51953L2.5 6.51855H3Z" stroke="url(#paint0_linear_529_22557)" stroke-width="1.5" stroke-dasharray="10 10"/>
<defs>
<linearGradient id="paint0_linear_529_22557" x1="1.5" y1="0" x2="1.5" y2="806" gradientUnits="userSpaceOnUse">
<stop offset="0.201923" stop-color="#124B96"/>
<stop offset="1" stop-color="#061830" stop-opacity="0"/>
</linearGradient>
</defs>
</svg>
