<svg width="32" height="32" viewBox="0 0 32 32" fill="none" xmlns="http://www.w3.org/2000/svg">
<circle cx="15.9974" cy="16.0001" r="13.3333" fill="#0077B5"/>
<path fill-rule="evenodd" clip-rule="evenodd" d="M12.5191 9.52259C12.5191 10.3527 11.8871 11.0244 10.8987 11.0244C9.94884 11.0244 9.31682 10.3527 9.33638 9.52259C9.31682 8.65219 9.94883 8 10.9176 8C11.8871 8 12.5002 8.65219 12.5191 9.52259ZM9.41584 21.8794V12.2108H12.4207V21.8788H9.41584V21.8794Z" fill="white"/>
<path fill-rule="evenodd" clip-rule="evenodd" d="M14.8295 15.2964C14.8295 14.0904 14.7897 13.0623 14.75 12.2121H17.36L17.4987 13.5367H17.558C17.9535 12.9236 18.9419 11.9951 20.5433 11.9951C22.5201 11.9951 24.0029 13.3001 24.0029 16.146V21.8807H20.9981V16.5226C20.9981 15.2762 20.5635 14.4266 19.4761 14.4266C18.6454 14.4266 18.1515 15 17.9541 15.5531C17.8747 15.7512 17.8355 16.0274 17.8355 16.3049V21.8807H14.8307V15.2964H14.8295Z" fill="white"/>
</svg>
