<svg width="49" height="33" viewBox="0 0 49 33" fill="none" xmlns="http://www.w3.org/2000/svg">
<g clip-path="url(#clip0_817_22907)">
<path d="M38.6795 6.47846C36.9185 6.73147 35.2704 7.31435 33.7078 8.15344C29.7341 10.2864 26.9171 13.6203 24.7807 17.6557C24.6556 17.8927 24.5152 18.1265 24.4175 18.3795C24.2649 18.783 24.0879 18.7061 23.862 18.4531C23.096 17.5884 22.861 16.5059 22.8152 15.3914C22.626 10.7316 24.3107 6.90441 27.6465 3.88112C30.0515 1.70333 32.9357 0.640049 36.0457 0.214098C39.8668 -0.311135 43.6238 0.166059 47.3503 1.07561C47.8569 1.20051 48.3575 1.34143 48.861 1.47914C48.8977 1.48875 48.9282 1.52078 49.0045 1.56561C48.8122 1.73215 48.6352 1.87947 48.4673 2.0364C47.3686 3.04203 46.627 4.31988 45.986 5.6714C44.9728 7.80435 44.2433 10.0622 43.3949 12.2656C42.6136 14.2929 41.7529 16.2689 40.5962 18.1008C38.5788 21.2971 35.716 22.9464 32.1269 23.3211C30.8054 23.4589 29.5021 23.43 28.2295 22.9721C27.9853 22.8824 27.7167 22.8055 27.5214 22.6422C27.1155 22.3059 26.8194 22.4564 26.4623 22.7351C23.8956 24.7239 22.1041 27.3437 20.7826 30.3509C20.4499 31.1068 20.1508 31.8786 19.87 32.66C19.7662 32.9515 19.6197 33.0251 19.3512 32.9867C19.0765 32.9451 18.9361 32.7817 18.9208 32.5063C18.8995 32.1796 19.0002 31.8754 19.1375 31.5904C22.217 25.1306 25.6871 18.9367 30.3476 13.5627C32.7129 10.8341 35.3467 8.43848 38.4384 6.6418C38.5239 6.59376 38.6032 6.5297 38.6856 6.47526L38.6795 6.47846Z" fill="white"/>
<path d="M0 8.69655C1.14145 8.34426 2.21271 8.09766 3.29007 7.89589C6.06739 7.37066 8.85388 7.16569 11.6526 7.68131C15.7148 8.43393 18.9591 10.4676 20.9154 14.4005C21.9348 16.4469 22.4078 18.6311 22.0935 20.9531C21.9989 21.648 21.8097 22.3206 21.358 22.8682C21.0344 23.2622 20.9734 23.2493 20.7353 22.7946C19.3558 20.1492 17.662 17.7728 15.3852 15.8961C13.4624 14.314 11.2985 13.2859 8.89966 12.8055C8.85998 12.7959 8.81725 12.8055 8.66465 12.8055C8.9729 12.9977 9.19875 13.1386 9.4246 13.2827C12.6262 15.2908 15.1898 18.0162 17.4209 21.1164C18.2144 22.2181 18.9316 23.371 19.6305 24.5432C19.7801 24.793 19.7587 24.9596 19.5817 25.1773C18.2052 26.8555 16.432 27.5057 14.3841 27.2783C11.0879 26.9132 8.61277 25.1453 6.85786 22.2213C5.64927 20.2068 4.86795 17.9842 4.04696 15.784C3.69903 14.852 3.35416 13.9201 2.9635 13.0073C2.27375 11.3964 1.47717 9.8495 0.00305201 8.69975L0 8.69655Z" fill="white"/>
</g>
<defs>
<clipPath id="clip0_817_22907">
<rect width="49" height="33" fill="white"/>
</clipPath>
</defs>
</svg>
