<svg width="17" height="17" viewBox="0 0 17 17" fill="none" xmlns="http://www.w3.org/2000/svg">
<path d="M15.255 0.375C15.8527 0.375 16.38 0.902344 16.38 1.53516V15C16.38 15.6328 15.8527 16.125 15.255 16.125H1.71985C1.12219 16.125 0.630005 15.6328 0.630005 15V1.53516C0.630005 0.902344 1.12219 0.375 1.71985 0.375H15.255ZM5.3761 13.875V6.38672H3.05579V13.875H5.3761ZM4.21594 5.33203C4.95422 5.33203 5.55188 4.73438 5.55188 3.99609C5.55188 3.25781 4.95422 2.625 4.21594 2.625C3.4425 2.625 2.84485 3.25781 2.84485 3.99609C2.84485 4.73438 3.4425 5.33203 4.21594 5.33203ZM14.13 13.875V9.76172C14.13 7.75781 13.673 6.17578 11.3175 6.17578C10.1925 6.17578 9.41907 6.80859 9.10266 7.40625H9.0675V6.38672H6.85266V13.875H9.17297V10.1836C9.17297 9.19922 9.34875 8.25 10.5792 8.25C11.7745 8.25 11.7745 9.375 11.7745 10.2188V13.875H14.13Z" fill="currentColor"/>
</svg>
