<svg width="52" height="43" viewBox="0 0 52 43" fill="none" xmlns="http://www.w3.org/2000/svg">
<g clip-path="url(#clip0_773_22826)">
<path d="M26.833 12.2241C26.833 10.5501 27.1507 8.97483 27.7859 7.49828C28.4555 6.02172 29.3355 4.72974 30.4257 3.62232C31.5159 2.51491 32.8165 1.64357 34.3274 1.0083C35.804 0.338705 37.3792 0.00390625 39.0532 0.00390625C40.7272 0.00390625 42.3025 0.338705 43.7791 1.0083C45.29 1.64357 46.5991 2.51491 47.7065 3.62232C48.8139 4.72974 49.6853 6.02172 50.3205 7.49828C50.9558 8.97483 51.2734 10.5501 51.2734 12.2241C51.2734 13.9324 50.9558 15.5249 50.3205 17.0014C49.6853 18.478 48.8139 19.77 47.7065 20.8774C46.5991 21.9848 45.3071 22.8562 43.8306 23.4914C42.3197 24.1267 40.7272 24.4443 39.0532 24.4443C38.6498 24.4443 38.2463 24.4271 37.8428 24.3928C37.4479 24.3585 37.0316 24.2941 36.5937 24.1996C36.9629 25.805 37.4136 27.3287 37.9458 28.771C38.4523 30.2132 38.9889 31.5524 39.5554 32.7886C40.1306 34.0333 40.7015 35.1751 41.2681 36.2138C41.8347 37.2182 42.3197 38.0896 42.7232 38.8278C42.9635 39.197 43.1653 39.5404 43.3284 39.858C43.5001 40.1756 43.6503 40.4546 43.7791 40.695C43.8821 40.8924 43.9851 41.1843 44.0881 41.5706C44.1825 41.9569 44.0624 42.2831 43.7276 42.5493C43.6331 42.6523 43.5258 42.7295 43.4056 42.781C43.2855 42.8326 43.161 42.8583 43.0322 42.8583C42.7918 42.8583 42.53 42.781 42.2467 42.6265C41.9634 42.4806 41.7059 42.3218 41.4741 42.1501C41.1393 41.9526 40.7187 41.6779 40.2122 41.326C39.7057 40.974 39.0532 40.4932 38.2549 39.8837L38.2034 39.8322C36.7611 38.5617 35.452 37.1796 34.2759 35.6859C33.0998 34.1921 32.0611 32.6254 31.1597 30.9858C30.4214 29.6466 29.7733 28.2473 29.2153 26.7879C28.6659 25.3285 28.2066 23.8262 27.8374 22.281C27.2365 19.8 26.9103 17.6453 26.8588 15.8168C26.8073 13.9882 26.7987 12.7907 26.833 12.2241ZM29.6531 21.8303C30.0566 23.47 30.5588 25.0624 31.1597 26.6076C31.7606 28.1185 32.4645 29.5693 33.2715 30.96C34.0785 32.3507 35.0013 33.6685 36.04 34.9132C37.0444 36.1494 38.1519 37.3041 39.3623 38.3771C39.5597 38.5488 39.8087 38.742 40.1091 38.9566C40.4096 39.1712 40.7272 39.3987 41.062 39.6391C40.5985 38.7978 40.0448 37.8063 39.4009 36.6645C38.8 35.5228 38.1819 34.2479 37.5466 32.8401C36.9114 31.4322 36.3233 29.9084 35.7825 28.2688C35.2159 26.6291 34.7824 24.8864 34.4819 23.0407L34.2244 21.4826L35.6795 22.0363C36.2547 22.1994 36.8169 22.3325 37.3664 22.4355C37.9244 22.5385 38.4867 22.59 39.0532 22.59C40.4611 22.59 41.8046 22.3196 43.0837 21.7788C44.3199 21.2465 45.4101 20.5083 46.3545 19.564C47.2902 18.6282 48.0242 17.5208 48.5564 16.2417C49.0972 15.0055 49.3677 13.6663 49.3677 12.2241C49.3677 10.8162 49.0972 9.47274 48.5564 8.19363C48.0242 6.95745 47.2902 5.8672 46.3545 4.92289C45.4101 3.98717 44.3199 3.25318 43.0837 2.72094C41.8389 2.18011 40.4955 1.90969 39.0532 1.90969C37.6454 1.90969 36.3062 2.18011 35.0356 2.72094C33.7909 3.25318 32.7006 3.98717 31.7649 4.92289C30.8206 5.8672 30.0823 6.95745 29.5501 8.19363C28.9749 9.4384 28.6873 10.7819 28.6873 12.2241V12.2756C28.6873 12.31 28.6873 12.3271 28.6873 12.3271C28.6873 12.3271 28.6873 12.3443 28.6873 12.3786C28.6616 12.8765 28.6701 13.9882 28.7131 15.7138C28.7646 17.4393 29.0779 19.4781 29.6531 21.8303ZM0.0232894 12.2756C0.0232894 10.5673 0.340917 8.97483 0.976179 7.49828C1.61144 6.02172 2.48278 4.72974 3.5902 3.62232C4.69761 2.51491 5.98959 1.64357 7.46615 1.0083C8.97704 0.373043 10.5695 0.0554151 12.2435 0.0554151C13.9175 0.0554151 15.4928 0.373043 16.9693 1.0083C18.4459 1.64357 19.7379 2.51491 20.8453 3.62232C21.9527 4.72974 22.824 6.02172 23.4593 7.49828C24.0945 8.97483 24.4122 10.5501 24.4122 12.2241C24.4122 13.9324 24.0945 15.5249 23.4593 17.0014C22.824 18.478 21.9527 19.77 20.8453 20.8774C19.7379 21.9848 18.4459 22.8562 16.9693 23.4914C15.4928 24.1267 13.9175 24.4443 12.2435 24.4443C11.84 24.4443 11.4279 24.4271 11.0073 24.3928C10.5952 24.3585 10.1875 24.2941 9.78399 24.1996C10.1531 25.805 10.5867 27.3287 11.0846 28.771C11.6254 30.2132 12.1791 31.5524 12.7457 32.7886C13.3209 34.0333 13.8917 35.1579 14.4583 36.1623C14.9906 37.201 15.4756 38.0896 15.9134 38.8278C16.1538 39.197 16.3555 39.5318 16.5186 39.8322C16.6903 40.1413 16.8234 40.4117 16.9178 40.6435C17.0208 40.8753 17.1324 41.1843 17.2526 41.5706C17.3642 41.9569 17.2526 42.2831 16.9178 42.5493C16.8234 42.6523 16.7161 42.7295 16.5959 42.781C16.4757 42.8326 16.3512 42.8583 16.2225 42.8583C15.9477 42.8583 15.6773 42.781 15.4112 42.6265C15.1451 42.4806 14.879 42.3218 14.6128 42.1501C14.278 41.9526 13.866 41.6779 13.3767 41.326C12.8873 40.974 12.2263 40.4932 11.3936 39.8837L11.3421 39.8322C9.93423 38.5617 8.64224 37.1796 7.46615 35.6859C6.29006 34.1921 5.25132 32.6254 4.34994 30.9858C3.61166 29.6466 2.96352 28.2473 2.40552 26.7879C1.8561 25.3285 1.39683 23.8262 1.02769 22.281C0.426765 19.8 0.100551 17.6453 0.0490438 15.8168C-0.0024639 13.9882 -0.0110491 12.8079 0.0232894 12.2756ZM2.84333 21.8303C3.21247 23.5043 3.71467 25.0967 4.34994 26.6076C4.95086 28.1185 5.6548 29.5693 6.46175 30.96C7.2687 32.3507 8.17438 33.6685 9.17878 34.9132C10.2175 36.1494 11.3421 37.3212 12.5525 38.4286C12.75 38.566 12.9989 38.742 13.2994 38.9566C13.5999 39.1712 13.9175 39.3987 14.2523 39.6391C13.7887 38.8321 13.235 37.8406 12.5912 36.6645C11.9559 35.5228 11.3292 34.2479 10.7111 32.8401C10.093 31.4322 9.51358 29.9084 8.97275 28.2688C8.40617 26.6291 7.97264 24.9036 7.67218 23.0922L7.36314 21.5212L8.86973 22.0363C9.41056 22.1994 9.96427 22.3325 10.5309 22.4355C11.106 22.5385 11.6769 22.59 12.2435 22.59C13.6514 22.59 14.9777 22.3196 16.2225 21.7788C17.493 21.2465 18.6004 20.5083 19.5447 19.564C20.4804 18.6282 21.2144 17.5208 21.7467 16.2417C22.2875 15.0055 22.5579 13.6663 22.5579 12.2241C22.5579 10.8162 22.2875 9.47274 21.7467 8.19363C21.2144 6.95745 20.4804 5.8672 19.5447 4.92289C18.6004 3.98717 17.5101 3.25318 16.274 2.72094C14.9949 2.18011 13.6514 1.90969 12.2435 1.90969C10.8013 1.90969 9.46207 2.18011 8.22589 2.72094C6.94678 3.25318 5.83937 3.98717 4.90364 4.92289C3.95934 5.8672 3.22106 6.95745 2.68881 8.19363C2.14798 9.47274 1.87756 10.8162 1.87756 12.2241V12.3271C1.87756 12.3271 1.87756 12.3357 1.87756 12.3529C1.87756 12.37 1.87756 12.3786 1.87756 12.3786C1.85181 12.8765 1.8604 13.9882 1.90332 15.7138C1.95483 17.4393 2.26816 19.4781 2.84333 21.8303Z" fill="black"/>
</g>
<defs>
<clipPath id="clip0_773_22826">
<rect width="51.2763" height="42.856" fill="white" transform="matrix(-1 0 0 1 51.2773 0)"/>
</clipPath>
</defs>
</svg>
