<svg width="19" height="18" viewBox="0 0 19 18" fill="none" xmlns="http://www.w3.org/2000/svg">
<path d="M15.375 7.3125C15.3516 8.95312 14.8828 10.3945 13.9688 11.6367L18.4336 16.0664C18.6445 16.3008 18.75 16.5703 18.75 16.875C18.75 17.1797 18.6445 17.4492 18.4336 17.6836C18.1992 17.8945 17.9297 18 17.625 18C17.3203 18 17.0508 17.8945 16.8164 17.6836L12.3867 13.2188C11.1445 14.1328 9.70312 14.6016 8.0625 14.625C6 14.5781 4.27734 13.8633 2.89453 12.4805C1.51172 11.0977 0.796875 9.375 0.75 7.3125C0.796875 5.25 1.51172 3.52734 2.89453 2.14453C4.27734 0.761719 6 0.046875 8.0625 0C10.125 0.046875 11.8477 0.761719 13.2305 2.14453C14.6133 3.52734 15.3281 5.25 15.375 7.3125ZM8.0625 12.375C8.97656 12.375 9.82031 12.1523 10.5938 11.707C11.3672 11.2617 11.9883 10.6406 12.457 9.84375C12.9023 9.04688 13.125 8.20312 13.125 7.3125C13.125 6.42188 12.9023 5.57812 12.457 4.78125C11.9883 3.98438 11.3672 3.36328 10.5938 2.91797C9.82031 2.47266 8.97656 2.25 8.0625 2.25C7.14844 2.25 6.30469 2.47266 5.53125 2.91797C4.75781 3.36328 4.13672 3.98438 3.66797 4.78125C3.22266 5.57812 3 6.42188 3 7.3125C3 8.20312 3.22266 9.04688 3.66797 9.84375C4.13672 10.6406 4.75781 11.2617 5.53125 11.707C6.30469 12.1523 7.14844 12.375 8.0625 12.375Z" fill="currentColor"/>
</svg>
