<svg width="30" height="24" viewBox="0 0 30 24" fill="none" xmlns="http://www.w3.org/2000/svg">
<path d="M2.00001 23.3184C0.895432 23.3184 0 22.423 0 21.3184V15.289C0 12.289 0.530973 9.52427 1.59292 6.99485C2.4753 4.89317 3.86681 2.77118 5.76745 0.628882C6.44456 -0.134306 7.59851 -0.204151 8.40059 0.426392L9.84575 1.56251C10.7795 2.29654 10.8635 3.67212 10.0981 4.58033C8.98534 5.90076 8.15619 7.14678 7.61061 8.31839C7.09011 9.43617 6.74624 10.6082 6.57898 11.8343C6.48736 12.506 5.65165 12.8584 5.15596 12.3961C4.64126 11.916 4.98098 11.0537 5.68482 11.0537H10.3894C11.494 11.0537 12.3894 11.9491 12.3894 13.0537V21.3184C12.3894 22.423 11.494 23.3184 10.3894 23.3184H2.00001ZM19.6106 23.3184C18.5061 23.3184 17.6106 22.423 17.6106 21.3184V15.289C17.6106 12.289 18.1416 9.52427 19.2036 6.99485C20.0859 4.89317 21.4774 2.77118 23.3781 0.628882C24.0552 -0.134306 25.2091 -0.204151 26.0112 0.426402L27.4564 1.56251C28.3901 2.29654 28.4741 3.67211 27.7087 4.58032C26.596 5.90076 25.7668 7.14678 25.2213 8.31839C24.7008 9.43617 24.3569 10.6082 24.1896 11.8343C24.098 12.506 23.2623 12.8584 22.7666 12.3961C22.2519 11.916 22.5916 11.0537 23.2955 11.0537H28C29.1046 11.0537 30 11.9491 30 13.0537V21.3184C30 22.423 29.1046 23.3184 28 23.3184H19.6106Z" fill="currentColor"/>
</svg>
