<svg width="33" height="32" viewBox="0 0 33 32" fill="none" xmlns="http://www.w3.org/2000/svg">
<path d="M24.0059 9.37043C24.0059 9.06107 23.8954 8.79591 23.6745 8.57494C23.4535 8.35398 23.1884 8.24351 22.879 8.24352L11.4768 8.50917C10.7697 8.59759 10.394 8.97326 10.3498 9.63618C10.4381 10.3433 10.8248 10.7079 11.5098 10.7299L20.0946 10.5639L8.82455 21.8339C8.38258 22.3643 8.38256 22.8946 8.82448 23.4249C9.3548 23.8669 9.88513 23.8668 10.4155 23.4249L21.6856 12.1548L21.4863 20.7727C21.5305 21.4357 21.9061 21.8113 22.6133 21.8997C23.2762 21.8554 23.6518 21.4798 23.7403 20.7726L24.0059 9.37043Z" fill="currentColor"/>
</svg>
